<svg width="43" height="38" viewBox="0 0 43 38" fill="none" xmlns="http://www.w3.org/2000/svg">
<path fill-rule="evenodd" clip-rule="evenodd" d="M4.30003 7.59998C3.91989 7.59998 3.55531 7.73343 3.28651 7.97097C3.01771 8.20852 2.8667 8.5307 2.8667 8.86664C2.8667 9.20258 3.01771 9.52476 3.28651 9.76231C3.55531 9.99986 3.91989 10.1333 4.30003 10.1333H38.7C39.0802 10.1333 39.4448 9.99986 39.7136 9.76231C39.9824 9.52476 40.1334 9.20258 40.1334 8.86664C40.1334 8.5307 39.9824 8.20852 39.7136 7.97097C39.4448 7.73343 39.0802 7.59998 38.7 7.59998H4.30003ZM2.8667 19C2.8667 18.664 3.01771 18.3419 3.28651 18.1043C3.55531 17.8668 3.91989 17.7333 4.30003 17.7333H38.7C39.0802 17.7333 39.4448 17.8668 39.7136 18.1043C39.9824 18.3419 40.1334 18.664 40.1334 19C40.1334 19.3359 39.9824 19.6581 39.7136 19.8956C39.4448 20.1332 39.0802 20.2666 38.7 20.2666H4.30003C3.91989 20.2666 3.55531 20.1332 3.28651 19.8956C3.01771 19.6581 2.8667 19.3359 2.8667 19ZM2.8667 29.1333C2.8667 28.7974 3.01771 28.4752 3.28651 28.2376C3.55531 28.0001 3.91989 27.8666 4.30003 27.8666H38.7C39.0802 27.8666 39.4448 28.0001 39.7136 28.2376C39.9824 28.4752 40.1334 28.7974 40.1334 29.1333C40.1334 29.4692 39.9824 29.7914 39.7136 30.029C39.4448 30.2665 39.0802 30.4 38.7 30.4H4.30003C3.91989 30.4 3.55531 30.2665 3.28651 30.029C3.01771 29.7914 2.8667 29.4692 2.8667 29.1333Z" fill="black"/>
</svg>
