<svg width="20" height="21" viewBox="0 0 20 21" fill="none" xmlns="http://www.w3.org/2000/svg">
<path d="M11.1763 1.04027C10.8142 0.84969 10.4103 0.75 10 0.75C9.58973 0.75 9.18577 0.84969 8.82375 1.04027L1.32375 4.98959C0.923851 5.20012 0.589434 5.51401 0.356268 5.8977C0.123101 6.28139 -4.53083e-05 6.72043 1.25049e-08 7.16789V7.55418L8.38625 12.4081L10 11.522L11.6138 12.4069L20 7.55665V7.16789C20 6.72043 19.8769 6.28139 19.6437 5.8977C19.4106 5.51401 19.0761 5.20012 18.6763 4.98959L11.1763 1.04027ZM20 8.98581L12.8837 13.1042L20 17.0066V8.98457V8.98581ZM19.9263 18.379L10 12.9339L0.07375 18.379C0.208755 18.9134 0.520927 19.3879 0.960587 19.727C1.40025 20.066 1.94213 20.2501 2.5 20.25H17.5C18.0579 20.2501 18.5998 20.066 19.0394 19.727C19.4791 19.3879 19.7912 18.9134 19.9263 18.379ZM1.25049e-08 17.0079L7.11625 13.1042L1.25049e-08 8.98581V17.0079Z" fill="#088AE8"/>
</svg>
