<svg width="20" height="20" viewBox="0 0 20 20" fill="none" xmlns="http://www.w3.org/2000/svg">
<g clip-path="url(#clip0)">
<path fill-rule="evenodd" clip-rule="evenodd" d="M2.35684 0.638689C2.57556 0.4203 2.83819 0.250887 3.12733 0.141677C3.41648 0.0324666 3.72553 -0.0140472 4.03401 0.00521808C4.34249 0.0244833 4.64336 0.109088 4.91667 0.253424C5.18998 0.397761 5.42949 0.598534 5.61934 0.842439L7.86309 3.72494C8.27434 4.25369 8.41934 4.94244 8.25684 5.59244L7.57309 8.32994C7.53774 8.47172 7.53965 8.62024 7.57863 8.76107C7.61762 8.90191 7.69236 9.03026 7.79559 9.13369L10.8668 12.2049C10.9704 12.3084 11.099 12.3832 11.24 12.4222C11.3811 12.4612 11.5299 12.463 11.6718 12.4274L14.4081 11.7437C14.7289 11.6635 15.0637 11.6573 15.3872 11.7255C15.7107 11.7937 16.0145 11.9346 16.2756 12.1374L19.1581 14.3799C20.1943 15.1862 20.2893 16.7174 19.3618 17.6437L18.0693 18.9362C17.1443 19.8612 15.7618 20.2674 14.4731 19.8137C11.1746 18.6531 8.17968 16.7647 5.71059 14.2887C3.2347 11.82 1.34635 8.82551 0.185589 5.52744C-0.266911 4.23994 0.139339 2.85619 1.06434 1.93119L2.35684 0.638689Z" fill="#088AE8"/>
</g>
<defs>
<clipPath id="clip0">
<rect width="20" height="20" fill="white"/>
</clipPath>
</defs>
</svg>
