<svg width="258" height="57" viewBox="0 0 258 57" fill="none" xmlns="http://www.w3.org/2000/svg">
<path d="M53.6307 5.355V10.041H61.1877V14.397H53.6307V19.479H62.1777V24H47.9877V0.833999H62.1777V5.355H53.6307ZM78.7442 19.644H86.1362V24H73.1012V0.833999H78.7442V19.644ZM113.743 8.292C113.743 9.634 113.435 10.866 112.819 11.988C112.203 13.088 111.257 13.979 109.981 14.661C108.705 15.343 107.121 15.684 105.229 15.684H101.731V24H96.0878V0.833999H105.229C107.077 0.833999 108.639 1.153 109.915 1.791C111.191 2.429 112.148 3.309 112.786 4.431C113.424 5.553 113.743 6.84 113.743 8.292ZM104.8 11.196C105.878 11.196 106.681 10.943 107.209 10.437C107.737 9.931 108.001 9.216 108.001 8.292C108.001 7.368 107.737 6.653 107.209 6.147C106.681 5.641 105.878 5.388 104.8 5.388H101.731V11.196H104.8ZM129.584 0.833999V24H123.941V0.833999H129.584ZM149.612 0.833999C152.054 0.833999 154.188 1.318 156.014 2.286C157.84 3.254 159.248 4.618 160.238 6.378C161.25 8.116 161.756 10.129 161.756 12.417C161.756 14.683 161.25 16.696 160.238 18.456C159.248 20.216 157.829 21.58 155.981 22.548C154.155 23.516 152.032 24 149.612 24H140.933V0.833999H149.612ZM149.249 19.116C151.383 19.116 153.044 18.533 154.232 17.367C155.42 16.201 156.014 14.551 156.014 12.417C156.014 10.283 155.42 8.622 154.232 7.434C153.044 6.246 151.383 5.652 149.249 5.652H146.576V19.116H149.249ZM177.813 0.833999V24H172.17V0.833999H177.813ZM200.118 24.231C197.94 24.231 195.938 23.725 194.112 22.713C192.308 21.701 190.867 20.293 189.789 18.489C188.733 16.663 188.205 14.617 188.205 12.351C188.205 10.085 188.733 8.05 189.789 6.246C190.867 4.442 192.308 3.034 194.112 2.022C195.938 1.01 197.94 0.504 200.118 0.504C202.296 0.504 204.287 1.01 206.091 2.022C207.917 3.034 209.347 4.442 210.381 6.246C211.437 8.05 211.965 10.085 211.965 12.351C211.965 14.617 211.437 16.663 210.381 18.489C209.325 20.293 207.895 21.701 206.091 22.713C204.287 23.725 202.296 24.231 200.118 24.231ZM200.118 19.083C201.966 19.083 203.44 18.467 204.54 17.235C205.662 16.003 206.223 14.375 206.223 12.351C206.223 10.305 205.662 8.677 204.54 7.467C203.44 6.235 201.966 5.619 200.118 5.619C198.248 5.619 196.752 6.224 195.63 7.434C194.53 8.644 193.98 10.283 193.98 12.351C193.98 14.397 194.53 16.036 195.63 17.268C196.752 18.478 198.248 19.083 200.118 19.083Z" fill="black"/>
<path d="M18.8059 32.834V37.355H12.6679V56H7.02488V37.355H0.886879V32.834H18.8059ZM35.4319 56L30.6139 47.255H29.2609V56H23.6179V32.834H33.0889C34.9149 32.834 36.4659 33.153 37.7419 33.791C39.0399 34.429 40.0079 35.309 40.6459 36.431C41.284 37.531 41.603 38.763 41.603 40.127C41.603 41.667 41.163 43.042 40.283 44.252C39.4249 45.462 38.1489 46.32 36.455 46.826L41.801 56H35.4319ZM29.2609 43.262H32.7589C33.7929 43.262 34.5629 43.009 35.0689 42.503C35.5969 41.997 35.8609 41.282 35.8609 40.358C35.8609 39.478 35.5969 38.785 35.0689 38.279C34.5629 37.773 33.7929 37.52 32.7589 37.52H29.2609V43.262ZM61.5463 51.908H52.9003L51.5143 56H45.6073L53.9893 32.834H60.5233L68.9053 56H62.9323L61.5463 51.908ZM60.0943 47.552L57.2233 39.071L54.3853 47.552H60.0943ZM99.6714 32.834V56H94.0284V42.107L88.8474 56H84.2934L79.0794 42.074V56H73.4364V32.834H80.1024L86.6034 48.872L93.0384 32.834H99.6714ZM116.665 56.231C114.487 56.231 112.485 55.725 110.659 54.713C108.855 53.701 107.414 52.293 106.336 50.489C105.28 48.663 104.752 46.617 104.752 44.351C104.752 42.085 105.28 40.05 106.336 38.246C107.414 36.442 108.855 35.034 110.659 34.022C112.485 33.01 114.487 32.504 116.665 32.504C118.843 32.504 120.834 33.01 122.638 34.022C124.464 35.034 125.894 36.442 126.928 38.246C127.984 40.05 128.512 42.085 128.512 44.351C128.512 46.617 127.984 48.663 126.928 50.489C125.872 52.293 124.442 53.701 122.638 54.713C120.834 55.725 118.843 56.231 116.665 56.231ZM116.665 51.083C118.513 51.083 119.987 50.467 121.087 49.235C122.209 48.003 122.77 46.375 122.77 44.351C122.77 42.305 122.209 40.677 121.087 39.467C119.987 38.235 118.513 37.619 116.665 37.619C114.795 37.619 113.299 38.224 112.177 39.434C111.077 40.644 110.527 42.283 110.527 44.351C110.527 46.397 111.077 48.036 112.177 49.268C113.299 50.478 114.795 51.083 116.665 51.083ZM154.356 56H148.713L139.275 41.711V56H133.632V32.834H139.275L148.713 47.189V32.834H154.356V56ZM177.091 32.834V37.355H170.953V56H165.31V37.355H159.172V32.834H177.091ZM196.324 51.908H187.678L186.292 56H180.385L188.767 32.834H195.301L203.683 56H197.71L196.324 51.908ZM194.872 47.552L192.001 39.071L189.163 47.552H194.872ZM228.938 56H223.295L213.857 41.711V56H208.214V32.834H213.857L223.295 47.189V32.834H228.938V56ZM245.965 56.231C243.787 56.231 241.785 55.725 239.959 54.713C238.155 53.701 236.714 52.293 235.636 50.489C234.58 48.663 234.052 46.617 234.052 44.351C234.052 42.085 234.58 40.05 235.636 38.246C236.714 36.442 238.155 35.034 239.959 34.022C241.785 33.01 243.787 32.504 245.965 32.504C248.143 32.504 250.134 33.01 251.938 34.022C253.764 35.034 255.194 36.442 256.228 38.246C257.284 40.05 257.812 42.085 257.812 44.351C257.812 46.617 257.284 48.663 256.228 50.489C255.172 52.293 253.742 53.701 251.938 54.713C250.134 55.725 248.143 56.231 245.965 56.231ZM245.965 51.083C247.813 51.083 249.287 50.467 250.387 49.235C251.509 48.003 252.07 46.375 252.07 44.351C252.07 42.305 251.509 40.677 250.387 39.467C249.287 38.235 247.813 37.619 245.965 37.619C244.095 37.619 242.599 38.224 241.477 39.434C240.377 40.644 239.827 42.283 239.827 44.351C239.827 46.397 240.377 48.036 241.477 49.268C242.599 50.478 244.095 51.083 245.965 51.083Z" fill="#088AE8"/>
</svg>
